<?xml version="1.0" encoding="utf-8"?>
<!-- Generator: Adobe Illustrator 26.3.1, SVG Export Plug-In . SVG Version: 6.00 Build 0)  -->
<svg version="1.1" id="Layer_1" xmlns="http://www.w3.org/2000/svg" xmlns:xlink="http://www.w3.org/1999/xlink" x="0px" y="0px"
	 viewBox="0 0 32 32" style="enable-background:new 0 0 32 32;" xml:space="preserve">
<style type="text/css">
	.st0{fill:#42B5E8;}
</style>
<g>
	<path class="st0" d="M12.3,14.3v2.4c0,1.9,0.3,3.3,1,4.3c0.7,1,1.6,1.5,2.8,1.5c1.2,0,2-0.4,2.7-1.2c0.6-0.8,0.9-1.9,0.9-3.2h7.6
		v1.2c0,3-1.1,5.3-3.2,7.1s-4.8,2.7-8.2,2.7c-3.8,0-6.8-1.1-8.9-3.3C5,23.6,4,20.5,4,16.7v-2.4c0-3.8,1-6.8,3.1-9.1
		C9.2,3.1,12.2,2,16,2c3.4,0,6.1,0.9,8.2,2.7c2.1,1.8,3.2,4.2,3.2,7.1v1.1h-7.6c0-1.3-0.3-2.4-0.9-3.2c-0.6-0.8-1.5-1.2-2.7-1.2
		c-1.2,0-2.2,0.5-2.8,1.5C12.6,11,12.3,12.5,12.3,14.3z"/>
</g>
</svg>
